<svg width="638" height="155" viewBox="0 0 638 155" fill="none" xmlns="http://www.w3.org/2000/svg">
<g clip-path="url(#clip0_7105_847)">
<path d="M565.305 152.43H564.809L367.764 138.152L125.458 149.299L125.21 149.174L4.30469 75.401L6.16477 74.5242L169.852 3.63232H169.976L358.464 14.6544L577.581 8.39185L577.953 8.7676L633.88 75.5262L633.26 76.2777L565.305 152.43ZM367.888 136.022L564.437 150.301L631.151 75.5262L576.713 10.6464L358.464 16.9089L170.224 5.88684L8.89288 75.7767L125.954 147.17L367.888 136.022Z" fill="url(#paint0_linear_7105_847)"/>
<path d="M566.173 153.307L564.313 152.054L497.102 107.841L369.749 137.4L370.865 138.152L368.757 137.776V138.653L367.641 137.901L367.269 138.152V137.901L363.301 138.778L365.533 137.525L196.637 108.718L124.094 149.925L124.838 147.796L139.967 99.0734L1.3291 75.5262L155.344 49.3488L169.604 3.38184L170.596 4.00809L221.562 38.0763L356.108 15.1554L354.124 13.7776L357.596 14.5291V14.2786L358.216 14.6544L359.084 14.1534V14.7796L361.936 14.2786L360.696 15.0301L540.752 40.0803H540.876L541.372 40.2055L577.21 8.39186L578.45 9.76962L543.976 40.3308H545.092L543.852 41.0823L632.764 74.7747L633.26 74.9L634.252 75.2757L635.616 75.5262L635.244 75.6515L635.492 75.7767L632.64 76.5282L553.773 94.8148L566.173 153.307ZM499.458 107.465L563.445 149.549L552.036 95.1906L499.458 107.465ZM141.703 99.4491L127.194 146.293L193.785 108.342L141.703 99.4491ZM359.456 17.5352L368.633 135.647L461.265 84.419L359.456 17.5352ZM199.118 107.465L363.797 135.521L265.46 69.6394L199.118 107.465ZM267.196 68.6374L366.773 135.271L357.596 17.1594L267.196 68.6374ZM463.001 85.5463L373.965 134.77L495.118 106.588L463.001 85.5463ZM142.199 97.6956L196.265 106.964L263.724 68.5122L221.066 39.955L156.708 50.8518L142.199 97.6956ZM464.737 84.5443L497.474 105.962L551.789 93.3118L544.224 57.1144L522.895 52.4801L464.737 84.5443ZM11.9936 75.5262L140.463 97.4451L154.724 51.2276L11.9936 75.5262ZM545.96 57.6154L553.401 93.0613L628.3 75.6515L545.96 57.6154ZM362.928 17.6604L463.001 83.417L520.043 51.9791L362.928 17.6604ZM545.588 55.6114L620.735 72.0192L542.736 42.4601L545.588 55.6114ZM223.671 39.5793L265.584 67.6354L353.628 17.5352L223.671 39.5793ZM525.127 51.2276L543.728 55.2356L541 42.4601L525.127 51.2276ZM381.281 19.7897L522.399 50.6013L538.768 41.5833L528.228 40.0803L381.281 19.7897ZM170.596 6.13735L157.328 48.9731L218.958 38.452L170.596 6.13735Z" fill="url(#paint1_linear_7105_847)"/>
<path d="M358.464 18.9129C360.177 18.9129 361.565 17.511 361.565 15.7817C361.565 14.0523 360.177 12.6504 358.464 12.6504C356.752 12.6504 355.364 14.0523 355.364 15.7817C355.364 17.511 356.752 18.9129 358.464 18.9129Z" fill="#1E959B"/>
<path d="M125.706 152.931C128.309 152.931 130.419 150.8 130.419 148.172C130.419 145.543 128.309 143.412 125.706 143.412C123.104 143.412 120.994 145.543 120.994 148.172C120.994 150.8 123.104 152.931 125.706 152.931Z" fill="#1E959B"/>
<path d="M564.809 154.559C566.521 154.559 567.909 153.157 567.909 151.428C567.909 149.699 566.521 148.297 564.809 148.297C563.097 148.297 561.709 149.699 561.709 151.428C561.709 153.157 563.097 154.559 564.809 154.559Z" fill="#1E959B"/>
<path d="M632.516 80.2856C635.118 80.2856 637.228 78.1547 637.228 75.5261C637.228 72.8975 635.118 70.7666 632.516 70.7666C629.913 70.7666 627.804 72.8975 627.804 75.5261C627.804 78.1547 629.913 80.2856 632.516 80.2856Z" fill="#1E959B"/>
<path d="M577.209 15.1554C580.291 15.1554 582.789 12.6319 582.789 9.51909C582.789 6.40626 580.291 3.88281 577.209 3.88281C574.127 3.88281 571.629 6.40626 571.629 9.51909C571.629 12.6319 574.127 15.1554 577.209 15.1554Z" fill="#1E959B"/>
<path d="M367.889 143.537C371.382 143.537 374.213 140.677 374.213 137.149C374.213 133.622 371.382 130.762 367.889 130.762C364.396 130.762 361.564 133.622 361.564 137.149C361.564 140.677 364.396 143.537 367.889 143.537Z" fill="#1E959B"/>
<path d="M6.66118 81.914C10.154 81.914 12.9855 79.0541 12.9855 75.5262C12.9855 71.9983 10.154 69.1384 6.66118 69.1384C3.16839 69.1384 0.336914 71.9983 0.336914 75.5262C0.336914 79.0541 3.16839 81.914 6.66118 81.914Z" fill="#1E959B"/>
<path d="M170.1 9.51905C172.702 9.51905 174.812 7.38814 174.812 4.75953C174.812 2.13091 172.702 0 170.1 0C167.497 0 165.388 2.13091 165.388 4.75953C165.388 7.38814 167.497 9.51905 170.1 9.51905Z" fill="#1E959B"/>
<path d="M85.9008 40.9569C90.241 42.961 93.4652 45.7165 95.8213 49.3487C98.1774 52.981 99.2934 57.2395 99.2934 62.1243C99.2934 67.0091 98.1774 71.2676 95.8213 74.8999C93.4652 78.5322 90.241 81.2877 85.9008 83.2917C81.5606 85.1704 76.6004 86.1724 70.7722 86.1724H57.3796V104.459H42.251V38.0762H70.6482C76.4764 38.0762 81.5606 38.9529 85.9008 40.9569ZM80.3206 70.6414C82.6767 68.6373 83.9168 65.8818 83.9168 62.1243C83.9168 58.3668 82.6767 55.486 80.3206 53.482C77.9645 51.478 74.4923 50.476 69.9042 50.476H57.5036V73.5221H69.9042C74.3683 73.6474 77.8405 72.6454 80.3206 70.6414ZM134.387 89.8047H125.335V104.459H110.454V49.8497H135.007C142.447 49.8497 148.399 51.6033 152.74 55.2355C157.08 58.8678 159.312 63.7526 159.312 70.0151C159.312 74.0231 158.32 77.4049 156.46 80.4109C154.6 83.2917 151.872 85.6714 148.399 87.2997L160.428 104.459H144.431L134.387 89.8047ZM141.827 63.7526C140.091 62.2496 137.487 61.6233 134.015 61.6233H125.335V78.5322H134.015C137.487 78.5322 140.091 77.7806 141.827 76.4029C143.563 74.8999 144.431 72.8959 144.431 70.1404C144.431 67.2596 143.563 65.1303 141.827 63.7526ZM181.757 101.829C177.293 99.5743 173.573 96.0672 170.968 91.6835C168.364 87.4249 167 82.5402 167 77.1544C167 71.7686 168.364 66.8838 170.968 62.6253C173.573 58.2415 177.293 54.7345 181.757 52.48C186.345 50.1003 191.553 48.8477 197.258 48.8477C202.962 48.8477 208.17 50.1003 212.758 52.48C217.222 54.7345 220.943 58.3668 223.547 62.6253C226.151 67.0091 227.515 71.7686 227.515 77.1544C227.515 82.5402 226.151 87.4249 223.547 91.6835C220.943 95.942 217.222 99.449 212.758 101.829C208.17 104.209 202.962 105.461 197.258 105.461C191.553 105.461 186.345 104.209 181.757 101.829ZM205.194 91.1825C207.55 89.8047 209.41 87.8007 210.65 85.4209C212.014 82.9159 212.634 80.0352 212.634 77.1544C212.634 74.0231 212.014 71.2676 210.65 68.8878C209.41 66.5081 207.426 64.5041 205.194 63.1263C200.358 60.3708 194.405 60.3708 189.569 63.1263C187.213 64.5041 185.353 66.5081 183.989 68.8878C182.625 71.2676 182.005 74.1484 182.005 77.1544C182.005 80.0352 182.625 82.7907 183.989 85.4209C185.229 87.8007 187.213 89.8047 189.569 91.1825C194.281 93.938 200.234 93.938 205.194 91.1825ZM238.179 49.8497H263.6C269.677 49.8497 275.133 50.977 279.721 53.1063C284.309 55.2355 287.905 58.492 290.51 62.6253C292.99 66.7586 294.354 71.5181 294.354 77.1544C294.354 82.6654 293.114 87.4249 290.51 91.5582C288.029 95.6915 284.433 98.8228 279.721 101.077C275.133 103.332 269.677 104.459 263.6 104.459H238.179V49.8497ZM263.104 92.6855C268.065 92.6855 272.033 91.3077 274.885 88.6775C277.737 86.0472 279.225 82.1644 279.225 77.2796C279.225 72.3949 277.737 68.5121 274.885 65.7566C272.033 63.0011 268.065 61.6233 263.104 61.6233H252.936V92.6855H263.104ZM311.094 98.948C306.63 94.5642 304.398 88.5522 304.398 80.9119V49.8497H319.279V80.4109C319.279 84.6694 320.147 87.8007 322.007 89.93C323.867 92.0592 326.595 93.1865 330.191 93.1865C333.663 93.1865 336.391 92.0592 338.128 89.93C339.988 87.8007 340.856 84.5442 340.856 80.4109V49.8497H355.488V80.9119C355.488 88.5522 353.256 94.5642 348.792 98.948C344.328 103.332 338.004 105.461 329.943 105.461C321.883 105.461 315.559 103.332 311.094 98.948ZM380.041 101.829C375.577 99.5743 371.857 96.0672 369.253 91.6835C366.649 87.4249 365.285 82.5402 365.285 77.1544C365.285 71.7686 366.649 66.8838 369.253 62.6253C371.857 58.3668 375.577 54.8598 380.041 52.48C384.63 50.1003 389.714 48.8477 395.418 48.8477C400.626 48.8477 405.09 49.5992 408.935 51.2275C412.779 52.8558 416.003 55.3608 418.731 58.8678L409.183 67.6353C405.586 63.2516 401.246 61.1223 396.038 61.1223C391.45 61.1223 387.73 62.6253 384.754 65.6313C381.777 68.6373 380.289 72.5201 380.289 77.2796C380.289 80.4109 380.909 83.2917 382.273 85.6714C383.513 88.0512 385.498 90.0552 387.854 91.3077C390.334 92.6855 393.186 93.3117 396.038 93.3117C401.246 93.3117 405.586 91.1825 409.183 86.7987L418.731 95.5662C416.127 98.948 412.779 101.453 408.935 103.081C405.09 104.71 400.626 105.461 395.418 105.461C389.838 105.461 384.63 104.209 380.041 101.829ZM438.2 61.4981H421.211V49.8497H470.069V61.4981H453.08V104.334H438.2V61.4981ZM488.174 44.0882V70.1404H522.151V76.1524H488.174V104.334H481.23V37.9509H526.244V43.963L488.174 44.0882ZM539.016 50.8518H545.712V104.459H539.016V50.8518ZM574.73 56.488H556.005V50.8518H600.151V56.488H581.426V104.459H574.73V56.488ZM538.148 39.8297C537.032 42.2095 538.148 45.0902 540.504 46.0922C542.86 47.2195 545.712 46.0922 546.704 43.7125C547.82 41.3327 546.704 38.4519 544.348 37.4499C541.992 36.3227 539.14 37.3247 538.148 39.8297Z" fill="#1E959B"/>
</g>
<defs>
<linearGradient id="paint0_linear_7105_847" x1="4.30593" y1="78.0822" x2="633.871" y2="78.0822" gradientUnits="userSpaceOnUse">
<stop stop-color="#AFDBDE"/>
<stop offset="1" stop-color="#C7E5E7"/>
</linearGradient>
<linearGradient id="paint1_linear_7105_847" x1="1.26871" y1="78.3449" x2="635.559" y2="78.3449" gradientUnits="userSpaceOnUse">
<stop stop-color="#AFDBDE"/>
<stop offset="1" stop-color="#C7E5E7"/>
</linearGradient>
<clipPath id="clip0_7105_847">
<rect width="636.891" height="154.559" fill="white" transform="translate(0.336914)"/>
</clipPath>
</defs>
</svg>
